G04*
G04 #@! TF.GenerationSoftware,Altium Limited,Altium Designer,19.1.5 (86)*
G04*
G04 Layer_Physical_Order=2*
G04 Layer_Color=32768*
%FSLAX44Y44*%
%MOMM*%
G71*
G01*
G75*
%ADD43C,1.6000*%
%ADD45C,1.5000*%
%ADD52C,1.7000*%
%ADD69C,1.4000*%
%ADD86C,1.0160*%
%ADD87C,1.3620*%
%ADD88C,1.9000*%
%ADD89C,3.6000*%
%ADD90C,2.1000*%
%ADD91C,1.6160*%
%ADD92C,4.1000*%
%ADD93C,4.2000*%
%ADD94C,1.3600*%
%ADD95C,1.3010*%
%ADD96C,2.2510*%
%ADD97C,1.5144*%
%ADD98C,4.6000*%
%ADD99C,1.1000*%
%ADD100C,0.9000*%
%ADD101C,1.3112*%
D43*
X1242000Y2217000D02*
D03*
Y2192000D02*
D03*
X1764000Y2212600D02*
D03*
Y2238000D02*
D03*
X1738600Y2212600D02*
D03*
Y2238000D02*
D03*
X1814800D02*
D03*
Y2212600D02*
D03*
X1840200Y2238000D02*
D03*
Y2212600D02*
D03*
D45*
X1319000Y2243750D02*
D03*
X1344000Y2188000D02*
D03*
X2671000Y2359000D02*
D03*
X2696000Y2414750D02*
D03*
X2721000Y2359000D02*
D03*
D52*
X1923600Y2349400D02*
D03*
X1949000D02*
D03*
X1923600Y2425600D02*
D03*
X1949000D02*
D03*
X1923600Y2451000D02*
D03*
X1949000D02*
D03*
X1923600Y2476400D02*
D03*
X1949000D02*
D03*
Y2400200D02*
D03*
X1923600D02*
D03*
X1949000Y2374800D02*
D03*
X1923600D02*
D03*
D69*
X2808000Y1680000D02*
D03*
X2833400D02*
D03*
X2832000Y1921000D02*
D03*
X2806600D02*
D03*
X1272400Y1680000D02*
D03*
X1247000D02*
D03*
X1247600Y2119000D02*
D03*
X1273000D02*
D03*
Y2360000D02*
D03*
X1247600D02*
D03*
Y1920000D02*
D03*
X1273000D02*
D03*
X1534730Y2055080D02*
D03*
X1458730D02*
D03*
X2807000Y2120000D02*
D03*
X2832400D02*
D03*
X2831400Y2361000D02*
D03*
X2806000D02*
D03*
D86*
X1200000Y1450000D02*
Y2540000D01*
X2880000D01*
Y1450000D02*
Y2540000D01*
X1200000Y1450000D02*
X2880000D01*
D87*
X2235000Y1918000D02*
D03*
X1635000Y2007000D02*
D03*
X1617000Y1762000D02*
D03*
X1691000Y2001000D02*
D03*
Y2049000D02*
D03*
X1783000Y2044000D02*
D03*
Y2092000D02*
D03*
X2454000Y1896000D02*
D03*
X2502000D02*
D03*
D88*
X1321000Y1946200D02*
D03*
Y1971600D02*
D03*
Y1997000D02*
D03*
Y2022400D02*
D03*
Y2047800D02*
D03*
Y2073200D02*
D03*
Y2098600D02*
D03*
X2368550Y2382520D02*
D03*
X2622550D02*
D03*
X2597150D02*
D03*
X2571750D02*
D03*
X2546350D02*
D03*
X2520950D02*
D03*
X2495550D02*
D03*
X2470150D02*
D03*
X2444750D02*
D03*
X2419350D02*
D03*
X2393950D02*
D03*
X2266950D02*
D03*
X2241550D02*
D03*
X2216150D02*
D03*
X2190750D02*
D03*
X2165350D02*
D03*
X2139950D02*
D03*
X2292350D02*
D03*
X2317750D02*
D03*
X2343150D02*
D03*
X2721000Y1900000D02*
D03*
Y1862000D02*
D03*
Y1824000D02*
D03*
X2835250Y1842750D02*
D03*
Y1880750D02*
D03*
Y1804750D02*
D03*
X1544000Y1547000D02*
D03*
X1506000D02*
D03*
X1468000D02*
D03*
X1455000Y2196000D02*
D03*
X2721000Y2018000D02*
D03*
Y1980000D02*
D03*
Y1942000D02*
D03*
X2835250Y1999250D02*
D03*
Y1961250D02*
D03*
Y2037250D02*
D03*
X1960000Y1547000D02*
D03*
X1922000D02*
D03*
X1884000D02*
D03*
X1746000D02*
D03*
X1708000D02*
D03*
X1670000D02*
D03*
D89*
X1676000Y2329000D02*
D03*
Y2471000D02*
D03*
X2730000Y2480000D02*
D03*
X1350000D02*
D03*
Y1510000D02*
D03*
X2730000D02*
D03*
D90*
X2257000Y1507000D02*
D03*
X2404000D02*
D03*
X2080000D02*
D03*
X2227000D02*
D03*
D91*
X2363300Y1625400D02*
D03*
X2376000Y1600000D02*
D03*
X2287100Y1625400D02*
D03*
X2299800Y1600000D02*
D03*
X2312500Y1625400D02*
D03*
X2350600Y1600000D02*
D03*
X2325200D02*
D03*
X2337900Y1625400D02*
D03*
X2186300D02*
D03*
X2199000Y1600000D02*
D03*
X2110100Y1625400D02*
D03*
X2122800Y1600000D02*
D03*
X2135500Y1625400D02*
D03*
X2173600Y1600000D02*
D03*
X2148200D02*
D03*
X2160900Y1625400D02*
D03*
X2515135Y1656541D02*
D03*
X2502435Y1631141D02*
D03*
X2527835D02*
D03*
X2489735Y1656541D02*
D03*
X2477035Y1631141D02*
D03*
X2464335Y1656541D02*
D03*
X2553235Y1631141D02*
D03*
X2540535Y1656541D02*
D03*
D92*
X2274000Y1536000D02*
D03*
X2097000D02*
D03*
X2451635Y1565101D02*
D03*
X2565934D02*
D03*
D93*
X2388000Y1536000D02*
D03*
X2211000D02*
D03*
D94*
X1365000Y1719000D02*
D03*
X1400000D02*
D03*
X2621310Y2004000D02*
D03*
X2570510D02*
D03*
X2519710D02*
D03*
X2468910D02*
D03*
X2621310Y2077000D02*
D03*
X2570510D02*
D03*
X2519710D02*
D03*
X2468910D02*
D03*
X2621310Y2149000D02*
D03*
X2570510D02*
D03*
X2519710D02*
D03*
X2468910D02*
D03*
D95*
X1542000Y1800000D02*
D03*
X1415000D02*
D03*
X1491200D02*
D03*
X1465800D02*
D03*
X1364200D02*
D03*
X1389600D02*
D03*
X2561650Y2230400D02*
D03*
X2587050D02*
D03*
X2612450D02*
D03*
X2304000Y1779400D02*
D03*
Y1754000D02*
D03*
Y1728600D02*
D03*
X2042000Y1675800D02*
D03*
Y1650400D02*
D03*
Y1625000D02*
D03*
X1824400Y1676350D02*
D03*
Y1650950D02*
D03*
Y1625550D02*
D03*
D96*
X2588735Y1598141D02*
D03*
X2428734D02*
D03*
D97*
X2574985Y1518642D02*
D03*
X2442491D02*
D03*
X2467925D02*
D03*
X2549679D02*
D03*
D98*
X2820000Y2480000D02*
D03*
X1260000D02*
D03*
Y1510000D02*
D03*
X2820000D02*
D03*
D99*
X2165000Y2456000D02*
D03*
X1497000Y2138000D02*
D03*
X1586000Y2154000D02*
D03*
D100*
X2611000Y2029000D02*
D03*
X2607000Y2170000D02*
D03*
X2624000Y2109000D02*
D03*
X2636000Y2029000D02*
D03*
X1968000Y2119000D02*
D03*
X2628000Y2340000D02*
D03*
X2622000Y2346000D02*
D03*
X1387000Y1953000D02*
D03*
X2407000Y2348000D02*
D03*
X2306000D02*
D03*
X2204000D02*
D03*
X2269000Y2230000D02*
D03*
X2167000D02*
D03*
X2168000Y2283000D02*
D03*
X2096000Y2352000D02*
D03*
X1786000Y2362000D02*
D03*
X1449000Y2228000D02*
D03*
X1751000Y2191000D02*
D03*
X1774000Y2190000D02*
D03*
X1601000Y2170000D02*
D03*
X1633000Y2311000D02*
D03*
X1744000Y2418000D02*
D03*
X2201000Y2435000D02*
D03*
X2274000Y2434000D02*
D03*
X2358000D02*
D03*
X2448000D02*
D03*
X2575000D02*
D03*
X2683000Y2441000D02*
D03*
X2771000Y2241000D02*
D03*
X2801000Y1900000D02*
D03*
X2802000Y2006000D02*
D03*
X2561000Y1976000D02*
D03*
X2542000Y1880000D02*
D03*
X2593000Y1841000D02*
D03*
X2646000Y1595000D02*
D03*
X2030000Y1801000D02*
D03*
X2050000Y1822000D02*
D03*
X1920000Y1853000D02*
D03*
X1813000Y1913000D02*
D03*
X1278000Y1959000D02*
D03*
X1297000Y2412000D02*
D03*
X2145000Y1966000D02*
D03*
X2343000Y2159000D02*
D03*
X2272000Y2160000D02*
D03*
X1967996Y2096996D02*
D03*
X1222000Y2245000D02*
D03*
X2747000Y1881000D02*
D03*
X1396000Y2436000D02*
D03*
X2671000Y2516000D02*
D03*
X2094000Y2518000D02*
D03*
X2394000D02*
D03*
X2613000Y2326000D02*
D03*
X2632000Y2209000D02*
D03*
X2818000Y2140000D02*
D03*
X2830000Y2309000D02*
D03*
X2801000Y1863000D02*
D03*
Y1824000D02*
D03*
X2858000Y1748000D02*
D03*
X2855000Y2076000D02*
D03*
Y1930000D02*
D03*
X1892000Y2380000D02*
D03*
Y2359000D02*
D03*
X1859000D02*
D03*
X1707500Y2150000D02*
D03*
X1754000Y2149000D02*
D03*
X1785000Y2137500D02*
D03*
X1875000Y2262500D02*
D03*
X1985000Y2352500D02*
D03*
Y2397500D02*
D03*
X2095000Y2430000D02*
D03*
X1985000Y2317500D02*
D03*
X2037500Y2350000D02*
D03*
X1985000Y2252500D02*
D03*
X1957500D02*
D03*
X1987500Y2457500D02*
D03*
X1612000Y1932000D02*
D03*
X1380000Y1986000D02*
D03*
X1411000Y1961000D02*
D03*
Y1931000D02*
D03*
X1380000Y2009000D02*
D03*
Y2033000D02*
D03*
X1612000Y1988000D02*
D03*
X1557000Y2010000D02*
D03*
X1505000Y2009000D02*
D03*
X1411000Y1911000D02*
D03*
X1564000Y1862000D02*
D03*
X1526000D02*
D03*
X1976000Y2173000D02*
D03*
X1656000Y1890000D02*
D03*
X1622500Y1862500D02*
D03*
Y1850000D02*
D03*
X2822500Y1747500D02*
D03*
X2735000Y1792500D02*
D03*
X2617500Y1767500D02*
D03*
X2662500Y1735000D02*
D03*
Y1662500D02*
D03*
X2685000Y1700000D02*
D03*
X2612500Y1592500D02*
D03*
X2755000Y1579000D02*
D03*
X2855000Y1577000D02*
D03*
X2688000Y1553000D02*
D03*
X2660000Y1477500D02*
D03*
X2602500Y1565000D02*
D03*
X2627500Y1477500D02*
D03*
X2647500Y1970000D02*
D03*
X1655000Y1870000D02*
D03*
X1637500Y1890000D02*
D03*
X1672500D02*
D03*
X1630000Y1880000D02*
D03*
X1647500D02*
D03*
X1665000D02*
D03*
X1682500D02*
D03*
X1622500Y1890000D02*
D03*
X1690000D02*
D03*
X1672500Y1870000D02*
D03*
X2167500Y2315000D02*
D03*
X2235000Y2405000D02*
D03*
X1567500Y2307500D02*
D03*
X1658000Y2516000D02*
D03*
X1221000Y1875000D02*
D03*
X1222500Y2072500D02*
D03*
X1226000Y2413000D02*
D03*
X1565000Y2432500D02*
D03*
X1411000Y2517000D02*
D03*
X1455000Y2175000D02*
D03*
X1297500Y2380000D02*
D03*
X1450000Y2297500D02*
D03*
X1498000Y2203000D02*
D03*
X1743000Y2312000D02*
D03*
X1636000Y2208000D02*
D03*
X1707000D02*
D03*
X1837500Y2145000D02*
D03*
X1927500Y2142500D02*
D03*
X1830000Y2012500D02*
D03*
X1782500Y2015000D02*
D03*
X1845000Y2095000D02*
D03*
X1747500Y2067500D02*
D03*
X1782500D02*
D03*
X1837500Y2042500D02*
D03*
X1705000Y2010000D02*
D03*
Y2057500D02*
D03*
X1660000Y2020000D02*
D03*
X1585000Y2035000D02*
D03*
X1665000Y2067500D02*
D03*
X1632500Y2120000D02*
D03*
X1705000Y2090000D02*
D03*
X1505000Y2075000D02*
D03*
X1556000D02*
D03*
X1557500Y2120000D02*
D03*
X1380000Y2074000D02*
D03*
X1362500Y2112500D02*
D03*
X1455000Y2142000D02*
D03*
X1297500Y2347500D02*
D03*
X1425000Y2297500D02*
D03*
X1427000Y2159000D02*
D03*
X1362500Y2147500D02*
D03*
X1280000Y2150000D02*
D03*
X1277500Y2072500D02*
D03*
X1320000Y1875000D02*
D03*
X1411000Y1876000D02*
D03*
X1277500Y2007500D02*
D03*
X1506000Y1912000D02*
D03*
X1612000Y1913000D02*
D03*
X1613000Y1874000D02*
D03*
X1692500Y1937500D02*
D03*
X1755000D02*
D03*
Y1872500D02*
D03*
Y1822500D02*
D03*
X1855000D02*
D03*
X1920000Y1820000D02*
D03*
X1967500Y1905000D02*
D03*
X1920000Y1872500D02*
D03*
X1855000Y1875000D02*
D03*
X1920000Y1927500D02*
D03*
X1877500Y1967500D02*
D03*
X1967500D02*
D03*
X1920000Y1997500D02*
D03*
X1917500Y2057500D02*
D03*
Y2110000D02*
D03*
X2650000Y1787500D02*
D03*
X2647500Y1917500D02*
D03*
Y1882500D02*
D03*
Y1850000D02*
D03*
X2752500Y2047500D02*
D03*
X2705000Y2050000D02*
D03*
X2770000Y2160000D02*
D03*
X2705000Y2140000D02*
D03*
X2680000Y2207500D02*
D03*
Y2280000D02*
D03*
X2770000Y2300000D02*
D03*
X2855000Y2420000D02*
D03*
X2770000D02*
D03*
X2855000Y2355000D02*
D03*
X2770000Y2357500D02*
D03*
X2545000D02*
D03*
X2622500D02*
D03*
X2362500Y2230000D02*
D03*
X2495000Y2405000D02*
D03*
Y2312500D02*
D03*
X2482500Y2260000D02*
D03*
X2442500D02*
D03*
X2405000Y2405000D02*
D03*
X2317500D02*
D03*
X2222500Y2315000D02*
D03*
X2305000Y2318000D02*
D03*
X2407000D02*
D03*
X2405000Y2280000D02*
D03*
X2317500D02*
D03*
X2085000Y2232500D02*
D03*
X2222500Y2282500D02*
D03*
X2085000D02*
D03*
X2047500Y2267500D02*
D03*
X1985000Y2217500D02*
D03*
X2037500Y2315000D02*
D03*
Y2397500D02*
D03*
X1912500Y2297500D02*
D03*
X1897500Y2480000D02*
D03*
X1825000Y2417500D02*
D03*
Y2312500D02*
D03*
X1837500Y2172500D02*
D03*
X1957500D02*
D03*
X1927500D02*
D03*
Y2210000D02*
D03*
X2552500Y1690000D02*
D03*
X2542500Y1750000D02*
D03*
X2542000Y1909000D02*
D03*
X2479000Y1910000D02*
D03*
X2385000Y1860000D02*
D03*
X2507500Y1862500D02*
D03*
X2322500Y1860000D02*
D03*
X2334000Y1836000D02*
D03*
X1947500Y1802500D02*
D03*
X2050000Y1855000D02*
D03*
X2000000Y1857500D02*
D03*
X2032500Y1940000D02*
D03*
Y1905000D02*
D03*
X2100000Y1995000D02*
D03*
X2145000D02*
D03*
X2100000Y1905000D02*
D03*
X2142500D02*
D03*
X2222500D02*
D03*
X2240000Y1966000D02*
D03*
X2265000Y1905000D02*
D03*
X2282500Y1887500D02*
D03*
X2262500Y1995000D02*
D03*
X2175000Y1905000D02*
D03*
Y1995000D02*
D03*
Y2037500D02*
D03*
X2262500Y2045000D02*
D03*
X2230000Y2060000D02*
D03*
Y2085000D02*
D03*
X2165000Y2145000D02*
D03*
X2205000D02*
D03*
X2185000Y2165000D02*
D03*
X2100000D02*
D03*
X2084000Y2209000D02*
D03*
X2424000Y2208000D02*
D03*
X2362500Y2207500D02*
D03*
X2317000Y2209000D02*
D03*
X2223000D02*
D03*
X2424000Y2191000D02*
D03*
X2317000Y2190000D02*
D03*
X2362500D02*
D03*
X2223000Y2188000D02*
D03*
X2316000Y2120000D02*
D03*
X2362000D02*
D03*
X2423000D02*
D03*
X2421000Y2042000D02*
D03*
X2491000Y2120000D02*
D03*
Y2042000D02*
D03*
Y2003000D02*
D03*
X2543000Y2002000D02*
D03*
X2375000Y1929000D02*
D03*
X2401000D02*
D03*
X2318000Y1995000D02*
D03*
X2317000Y2044000D02*
D03*
X2361000D02*
D03*
X2317000Y2054000D02*
D03*
X2294000Y1899000D02*
D03*
X2329000Y1936000D02*
D03*
X2321000Y1927000D02*
D03*
X2313000Y1918000D02*
D03*
X2304000Y1909000D02*
D03*
X2078000Y2032000D02*
D03*
X2089000D02*
D03*
X1968000Y2109000D02*
D03*
X2077000Y2010000D02*
D03*
X1967000Y2038000D02*
D03*
X2075000Y2132000D02*
D03*
X2087000D02*
D03*
X1967000Y2011000D02*
D03*
Y2064000D02*
D03*
X1982000Y2132000D02*
D03*
X2149000Y2082000D02*
D03*
X2470000Y2287000D02*
D03*
X2351000D02*
D03*
X2342000D02*
D03*
X2360000D02*
D03*
X2241000D02*
D03*
X2268000D02*
D03*
X2250000D02*
D03*
X2258775Y2287225D02*
D03*
X1640730Y2097000D02*
D03*
X1669000Y2140000D02*
D03*
X1414000Y2041000D02*
D03*
X1404000Y2047000D02*
D03*
X2110000Y2148000D02*
D03*
X1958000Y2147000D02*
D03*
X1852000Y2086000D02*
D03*
X1946500Y2207250D02*
D03*
X1872000Y2086000D02*
D03*
X1880500Y2094000D02*
D03*
X2089000Y1979000D02*
D03*
X1853000Y1949000D02*
D03*
X2026000D02*
D03*
X2041000Y1950000D02*
D03*
X2035000Y1969000D02*
D03*
X2047000Y1968968D02*
D03*
X2084000Y2179000D02*
D03*
X2278000Y1995000D02*
D03*
X2196422Y2077578D02*
D03*
X2199000Y2064000D02*
D03*
X2213000Y2094000D02*
D03*
X2181000Y2064000D02*
D03*
X2189996Y2055996D02*
D03*
X2125000Y1963270D02*
D03*
X2720000Y2060000D02*
D03*
X2680000Y2080000D02*
D03*
X2720000Y2086000D02*
D03*
X2087000Y1892000D02*
D03*
X2077000Y1902000D02*
D03*
X2058000Y1922000D02*
D03*
X2067000Y1912000D02*
D03*
X2054000Y1941000D02*
D03*
X2060000Y1949000D02*
D03*
X2130044Y2082800D02*
D03*
X2206000Y2087000D02*
D03*
X1905000Y1843000D02*
D03*
X1972310Y1841500D02*
D03*
X2387000Y1752000D02*
D03*
X2402000Y1771000D02*
D03*
X2358644Y1775460D02*
D03*
X2358390Y1784350D02*
D03*
X2342388Y1914398D02*
D03*
X1558000Y1695000D02*
D03*
X1508000Y1844000D02*
D03*
X1519000Y1723000D02*
D03*
Y1769000D02*
D03*
X1604000Y1751000D02*
D03*
X1630000D02*
D03*
X1604000Y1773000D02*
D03*
X1630000D02*
D03*
X2586000Y1690000D02*
D03*
X2506000Y1750000D02*
D03*
X2508000Y1482000D02*
D03*
X2437000D02*
D03*
X2578000D02*
D03*
X2586000Y1652000D02*
D03*
X2407000Y1658000D02*
D03*
X2487000Y1564000D02*
D03*
Y1579000D02*
D03*
X2523000Y1596000D02*
D03*
X2487000D02*
D03*
X2523000Y1581000D02*
D03*
X2487000Y1546000D02*
D03*
X2442000Y1657000D02*
D03*
X2447000Y1738000D02*
D03*
X2413000D02*
D03*
X2430000D02*
D03*
X2462588Y1880588D02*
D03*
X2585995Y1707003D02*
D03*
X2584616Y1761007D02*
D03*
X2585995Y1699003D02*
D03*
X2350643Y1923796D02*
D03*
X2332736Y1906524D02*
D03*
X2324354Y1896872D02*
D03*
X2358644Y1933194D02*
D03*
X2314702Y1889760D02*
D03*
X2358390Y1792478D02*
D03*
X2387500Y1724000D02*
D03*
X2477500Y1837500D02*
D03*
X2507500Y1811994D02*
D03*
X2447500Y1797500D02*
D03*
X2585616Y1744007D02*
D03*
Y1735007D02*
D03*
X2586000Y1716000D02*
D03*
D101*
X2152000Y1807000D02*
D03*
X1603000Y2266000D02*
D03*
X2472000Y2217000D02*
D03*
X2627000Y1534000D02*
D03*
X2639000Y1701000D02*
D03*
X2029000Y1779200D02*
D03*
X1811400Y1779750D02*
D03*
X2276000Y1862000D02*
D03*
X2242000Y1688000D02*
D03*
X2157000Y1733000D02*
D03*
X1786400Y1553550D02*
D03*
X1743000Y1656000D02*
D03*
X1673000D02*
D03*
X1714000Y1591000D02*
D03*
X1932000D02*
D03*
X1891000Y1656000D02*
D03*
X1961000D02*
D03*
X2004000Y1553000D02*
D03*
M02*
