M48
;Layer_Color=9474304
;FILE_FORMAT=4:4
METRIC,LZ
;TYPE=PLATED
T1F00S00C0.3000
T2F00S00C0.5000
T3F00S00C0.7010
T4F00S00C0.7112
T5F00S00C0.7600
T6F00S00C0.7620
T7F00S00C0.8000
T8F00S00C0.9000
T9F00S00C0.9144
T10F00S00C1.0000
T11F00S00C1.0160
T12F00S00C1.1000
T13F00S00C1.3000
T14F00S00C1.5000
T15F00S00C1.6510
;TYPE=NON_PLATED
T16F00S00C3.0000
T17F00S00C3.5000
T18F00S00C3.6000
T19F00S00C4.0000
%
T01
X02855Y01577
X02755Y01579
X02688Y01553
X026025Y01565
X02523Y01581
X02487Y01579
Y01564
Y01546
X02508Y01482
X02578
X026275Y014775
X0266
X02437Y01482
X01558Y01695
X01519Y01723
Y01769
X01508Y01844
X01526Y01862
X01564
X01506Y01912
X01411Y01911
Y01931
Y01961
X01387Y01953
X01411Y01876
X0132Y01875
X01221
X01278Y01959
X01612Y01932
Y01913
X016225Y0189
X016375
X0163Y0188
X016475
X01655Y0187
X016725
X01665Y0188
X016825
X0169Y0189
X016725
X01656
X01613Y01874
X016225Y018625
Y0185
X016045Y01826
X01604Y01773
Y01751
X0163
Y01773
X01755Y018225
Y018725
Y019375
X016925
X01813Y01913
X01853Y01949
X018775Y019675
X0192Y019275
Y018725
Y01853
X01905Y01843
X0192Y0182
X019475Y018025
X0197231Y018415
X019675Y01905
Y019675
X01855Y01875
Y018225
X02Y018575
X0205Y01855
Y01822
X0203Y01801
X020325Y01905
X02057Y01912
X02067
Y01902
X02077
Y01892
X02087
X021Y01905
X021425
X02175
X022225
X02265
X022825Y018875
X02294Y01899
X02304Y01909
X02313Y01918
X02321Y01927
X02329Y01936
X02340356Y0192405
X02350643Y01923796
X0235Y01933
X02358644Y01933194
X02375Y01929
X02342388Y01914398
X02331974Y01915668
X02332736Y01906524
X02323338Y01907032
X02324354Y01896872
X02314956Y0189865
X02314702Y0188976
X023225Y0186
X02334Y01836
X0235037Y0181237
X0235839Y01792478
Y0178435
X02358644Y0177546
X0224Y01966
X02145
X02125Y0196327
X02089Y01979
X02047Y01968968
X02035Y01969
X02041Y01962
Y0195
X02026Y01949
X020325Y0194
X02054Y01941
X02062
X0206Y01949
X02058Y01922
X02401Y01929
X02434Y01919
X02479Y0191
X02462588Y01880588
X02457995Y01852996
X024775Y018375
Y018275
Y018125
X024625Y017975
X024475
X024325
X02402Y01771
X02387Y01752
X023875Y01724
X02413Y01738
X0243
X02447
X02455Y01722
X02442Y01657
X02407Y01658
X02487Y01596
X02523
X026125Y015925
X02646Y01595
X026625Y016625
X02685Y017
X026625Y01735
X0265Y017875
X026175Y017675
X02584616Y01761007
X02585616Y01744007
Y01735007
X02586Y01716
X02585995Y01707003
Y01699003
X02586Y0169
X025525
X025425Y0175
X02506
X025075Y01811994
X02542Y01815
X02542Y0188
Y01909
X02523Y01919
X025075Y018625
X02593Y01841
X026475Y0185
Y018825
Y019175
Y0197
X02561Y01976
X02747Y01881
X02735Y017925
X02586Y01652
X02385Y0186
X02801Y01863
Y019
Y01824
X028225Y017475
X02858Y01748
X02855Y0193
X02802Y02006
X02855Y02076
X02818Y0214
X0283Y02309
X02855Y02355
X0277Y023575
Y023
X02771Y02241
X0277Y0216
X02772Y02135
X02705Y0214
X027Y0208
X0268
X0272Y02086
Y0206
X02705Y0205
X027525Y020475
X02636Y02029
X02611
X02624Y02109
X02607Y0217
X02632Y02209
X0268Y022075
Y0228
X02628Y0234
X02622Y02346
X026225Y023575
X02613Y02326
X02545Y023575
X02495Y023125
X0247Y02287
X024825Y0226
X024425
X02405Y0228
X02407Y02318
Y02348
X02424Y02208
Y02191
X02423Y0212
X02491
Y02042
Y02003
X02543Y02002
X02421Y02042
X02361Y02044
X02317
Y02054
X02318Y01995
X02278
X022625
Y02045
X0223Y0206
Y02085
X02215
X02213Y02094
X02206Y02087
X02196422Y02077578
X02199Y02064
X0219
X02189996Y02055996
X02181Y02064
X02175Y020375
Y01995
X02145
X021
X02077Y0201
X02066Y0202
X02078Y02032
X02089
X02054999Y02039999
Y02054999
Y02069999
X02069999
Y02084999
X02054999
Y02099999
X0205496Y0211477
X02039999Y02114999
Y02099999
Y02084999
Y02069999
Y02054999
Y02039999
Y02024999
X02009999
Y02039999
Y02054999
X02024999
Y02069999
Y02084999
Y02099999
X02009999
Y02084999
Y02069999
X01994999Y02054999
Y02024999
X01998Y02125
X02025Y02115
X02077
X02075Y02132
X02087
X0211Y02148
X021Y02165
X02084Y02179
X02084Y02209
X02085Y022325
Y022825
X020475Y022675
X020375Y02315
Y0235
X01985Y023525
Y023175
Y022525
Y022175
X02167Y0223
X02168Y02283
X021675Y02315
X022225
Y022825
X02241Y02287
X0225
X02258775Y02287225
X02268Y02287
X023175Y0228
X02342Y02287
X02351
X0236
X023625Y0223
Y022075
Y0219
X02317
Y02209
X02269Y0223
X02223Y02209
Y02188
X02205Y02145
X02185Y02165
X02165Y02145
X02149Y02082
X02139188Y02082546
X02130044Y020828
X02272Y0216
X02343Y02159
X02362Y0212
X02316
X02305Y02318
X02306Y02348
X02204
X02096Y02352
X01892Y02359
Y0238
X01859Y02359
X01786Y02362
X01825Y023125
X01743Y02312
X01633Y02311
X01636Y02208
X01707
X017075Y0215
X01754Y02149
X01785Y021375
X018375Y02145
Y021725
X01774Y0219
X01751Y02191
X017475Y020675
X017825
Y02015
X01753Y02001
X01705Y0201
Y020575
Y0209
X01665Y020675
X0166Y0202
X01612Y01988
X0164073Y02097
X016325Y0212
X01669Y0214
X01601Y0217
X01845Y02095
X01852Y02086
X01872
X01866Y02094
X018805
X019175Y0211
X019275Y021425
Y021725
X019575
X01976Y02173
X01958Y02147
X01968Y02119
Y02109
X01967996Y02096996
X01967Y02064
Y02038
Y02011
X0192Y019975
X019175Y020575
X018375Y020425
X0183Y020125
X01982Y02132
X019465Y0220725
X019275Y0221
X019575Y022525
X019125Y022975
X01875Y022625
X015675Y023075
X0145Y022975
X01425
X01449Y02228
X01455Y02175
Y02142
X01427Y02159
X013625Y021475
Y021125
X0138Y02074
Y02033
Y02009
Y01986
X01404Y02047
X01414Y02041
X01505Y02009
X01557Y0201
X01585Y02035
X01556Y02075
X015575Y0212
X01505Y02075
X01498Y02203
X0128Y0215
X012775Y020725
X012225
X012775Y020075
X01222Y02245
X012975Y023475
Y0238
X01297Y02412
X01226Y02413
X01396Y02436
X01411Y02517
X01565Y024325
X01658Y02516
X01744Y02418
X01825Y024175
X018975Y0248
X019875Y024575
X01985Y023975
X020375
X02095Y0243
X02094Y02518
X02201Y02435
X02235Y02405
X02274Y02434
X023175Y02405
X02358Y02434
X02405Y02405
X02448Y02434
X02495Y02405
X02575Y02434
X02683Y02441
X02671Y02516
X0277Y0242
X02394Y02518
X02855Y0242
T02
X01246Y01621
X01247Y01862
X01514Y01901
X0150495Y0193167
Y0196215
X0176911Y0193167
X018161Y0188976
X0199263Y0190373
X02807Y01984
Y01619
X0284Y0209
X02724Y02159
Y02228
X02723Y02295
X0259715Y0232791
X0257175
X0249555
X0247015
X0244475
X0241935
X0239395
X02395Y02174
Y02102
Y02029
X0236855Y0232791
X0234315
X0231775
X0229235
X0226695
X0224155
X0221615
X0213995
X0203Y02282
X01805Y02068
X01714Y02026
X0165227Y0205486
X017055Y02112
X01586Y02154
X01497Y02138
X01418Y02098
X01426Y02033
X0150482Y0198891
X01247Y0206
X0125Y02282
X02131Y02436
X02165Y02456
X02546Y02436
X02806Y02425
T03
X013642Y018
X013896
X01415
X014658
X014912
X015166
X01542
X018244Y0170175
Y0167635
Y0165095
Y0162555
X02042Y01625
Y016504
Y016758
Y017012
X02304Y017286
Y01754
Y017794
Y018048
X0253625Y022304
X0256165
X0258705
X0261245
T04
X02627Y01534
X02663Y01517
X02004Y01553
X017864Y0155355
X01308Y01565
X016Y01703
X01673Y01712
Y01656
X01743
Y01711
X018114Y0177975
X01891Y01712
Y01656
X01961
Y01711
X01932Y01591
X01714
X01696Y01839
X02029Y017792
X02152Y01807
Y01838
X02157Y01733
X02242Y01688
X02276Y01862
X026115Y01824
X02639Y017375
Y01701
X02472Y02217
X01618Y02168
X01603Y02266
X01551Y02244
X02026Y02433
T05
X01365Y01719
X014
X0246891Y02004
X0251971
X0257051
X0262131
X0262131Y02077
X0257051
X0251971
X0246891
Y02149
X0251971
X0257051
X0262131
T06
X01617Y01762
X02024Y01859
X02235Y01918
X02454Y01896
X02502
X01783Y02044
Y02092
X01691Y02049
Y02001
X01635Y02007
T07
X01247Y0168
X012724
X01273Y0192
X012476
X028066Y01921
X02832
X028334Y0168
X02808
X02807Y0212
X028324
X028314Y02361
X02806
X01273Y0236
X012476
Y02119
X01273
X0145873Y0205508
X0153473
T08
X02671Y02359
X02721
X01319Y0224375
X01294Y02188
X01344
X02696Y0241475
T09
X02442491Y01518642
X02467925
X02549679
X02574985
T10
X017386Y022126
X01764
X017894
Y02238
X01764
X017386
X018148
Y022126
X018402
Y02238
X01242Y02217
Y02192
Y02167
T11
X021228Y016
X021482
X021736
X02199
X021863Y016254
X021609
X021355
X021101
X022871
X023125
X023379
X023633
X02376Y016
X023506
X023252
X022998
X02477035Y01631141
X02502435
X02527835
X02553235
X02540535Y01656541
X02515135
X02489735
X02464335
T12
X019236Y02324
Y023494
X01949
Y02324
Y023748
X019236
Y024002
Y024256
X01949
Y02451
X019236
Y024764
X01949
Y024002
T13
X0167Y01547
X01708
X01746
X01884
X01922
X0196
X01544
X01506
X01468
X01321Y019462
Y019716
X02721Y0198
Y01942
Y019
Y01862
Y01824
X0283525Y0184275
Y0188075
Y0180475
Y0196125
Y0199925
Y0203725
X02721Y02018
X01321Y020224
Y01997
Y020478
Y020732
Y020986
X01455Y02196
Y02396
X0213995Y0238252
X0216535
X0219075
X0221615
X0224155
X0226695
X0229235
X0231775
X0234315
X0236855
X0239395
X0241935
X0244475
X0247015
X0249555
X0252095
X0254635
X0257175
X0259715
X0262255
T14
X02404Y01507
X02257
X02227
X0208
T15
X02428734Y01598141
X02588735
T16
X0273Y0151
X0135
X01676Y02329
X0135Y0248
X01676Y02471
X0273Y0248
T17
X02451635Y01565101
X02565934
X02274Y01536
X02097
T18
X02388Y01536
X02211
T19
X0282Y0151
X0126
Y0248
X0282
M30
