G04*
G04 #@! TF.GenerationSoftware,Altium Limited,Altium Designer,19.1.5 (86)*
G04*
G04 Layer_Color=16711935*
%FSLAX44Y44*%
%MOMM*%
G71*
G01*
G75*
%ADD31R,1.1000X1.4000*%
G04:AMPARAMS|DCode=32|XSize=1.7mm|YSize=1.3mm|CornerRadius=0.35mm|HoleSize=0mm|Usage=FLASHONLY|Rotation=90.000|XOffset=0mm|YOffset=0mm|HoleType=Round|Shape=RoundedRectangle|*
%AMROUNDEDRECTD32*
21,1,1.7000,0.6000,0,0,90.0*
21,1,1.0000,1.3000,0,0,90.0*
1,1,0.7000,0.3000,0.5000*
1,1,0.7000,0.3000,-0.5000*
1,1,0.7000,-0.3000,-0.5000*
1,1,0.7000,-0.3000,0.5000*
%
%ADD32ROUNDEDRECTD32*%
%ADD33R,1.3000X1.7000*%
%ADD34R,1.4000X1.1000*%
%ADD35R,0.7000X0.7500*%
%ADD36R,0.7000X0.6500*%
%ADD40O,0.4000X1.5000*%
%ADD41O,1.5000X0.4000*%
%ADD42R,1.6000X1.6000*%
%ADD43C,1.6000*%
%ADD44P,1.7578X8X22.5*%
%ADD45C,1.5000*%
%ADD46R,1.5000X1.5000*%
%ADD47C,2.1000*%
%ADD48R,2.1000X2.1000*%
%ADD49R,2.1000X2.1000*%
%ADD50R,1.6240X1.6240*%
%ADD51R,1.6000X1.6000*%
%ADD52C,1.7000*%
%ADD53R,1.7000X1.7000*%
%ADD54O,1.6748X2.1320*%
%ADD55R,1.6748X2.1320*%
%ADD56C,3.6000*%
%ADD57C,1.6240*%
%ADD58C,1.3000*%
%ADD59R,1.3000X1.3000*%
%ADD60C,2.3860*%
%ADD61C,1.9288*%
%ADD144R,0.6500X0.7000*%
%ADD145R,0.7500X0.7000*%
%ADD146R,4.1000X1.7000*%
%ADD147R,0.8300X1.8800*%
G04:AMPARAMS|DCode=148|XSize=0.83mm|YSize=1.88mm|CornerRadius=0.2325mm|HoleSize=0mm|Usage=FLASHONLY|Rotation=0.000|XOffset=0mm|YOffset=0mm|HoleType=Round|Shape=RoundedRectangle|*
%AMROUNDEDRECTD148*
21,1,0.8300,1.4150,0,0,0.0*
21,1,0.3650,1.8800,0,0,0.0*
1,1,0.4650,0.1825,-0.7075*
1,1,0.4650,-0.1825,-0.7075*
1,1,0.4650,-0.1825,0.7075*
1,1,0.4650,0.1825,0.7075*
%
%ADD148ROUNDEDRECTD148*%
G04:AMPARAMS|DCode=149|XSize=0.83mm|YSize=1.88mm|CornerRadius=0.2325mm|HoleSize=0mm|Usage=FLASHONLY|Rotation=90.000|XOffset=0mm|YOffset=0mm|HoleType=Round|Shape=RoundedRectangle|*
%AMROUNDEDRECTD149*
21,1,0.8300,1.4150,0,0,90.0*
21,1,0.3650,1.8800,0,0,90.0*
1,1,0.4650,0.7075,0.1825*
1,1,0.4650,0.7075,-0.1825*
1,1,0.4650,-0.7075,-0.1825*
1,1,0.4650,-0.7075,0.1825*
%
%ADD149ROUNDEDRECTD149*%
%ADD150R,1.8800X0.8300*%
G04:AMPARAMS|DCode=151|XSize=1.1mm|YSize=1.1mm|CornerRadius=0.3mm|HoleSize=0mm|Usage=FLASHONLY|Rotation=180.000|XOffset=0mm|YOffset=0mm|HoleType=Round|Shape=RoundedRectangle|*
%AMROUNDEDRECTD151*
21,1,1.1000,0.5000,0,0,180.0*
21,1,0.5000,1.1000,0,0,180.0*
1,1,0.6000,-0.2500,0.2500*
1,1,0.6000,0.2500,0.2500*
1,1,0.6000,0.2500,-0.2500*
1,1,0.6000,-0.2500,-0.2500*
%
%ADD151ROUNDEDRECTD151*%
%ADD152R,1.1000X1.1000*%
G04:AMPARAMS|DCode=153|XSize=1.1mm|YSize=1.1mm|CornerRadius=0.3mm|HoleSize=0mm|Usage=FLASHONLY|Rotation=270.000|XOffset=0mm|YOffset=0mm|HoleType=Round|Shape=RoundedRectangle|*
%AMROUNDEDRECTD153*
21,1,1.1000,0.5000,0,0,270.0*
21,1,0.5000,1.1000,0,0,270.0*
1,1,0.6000,-0.2500,-0.2500*
1,1,0.6000,-0.2500,0.2500*
1,1,0.6000,0.2500,0.2500*
1,1,0.6000,0.2500,-0.2500*
%
%ADD153ROUNDEDRECTD153*%
%ADD154R,1.1000X1.1000*%
%ADD155R,1.4000X1.9000*%
G04:AMPARAMS|DCode=156|XSize=1.9mm|YSize=2.5mm|CornerRadius=0.5mm|HoleSize=0mm|Usage=FLASHONLY|Rotation=270.000|XOffset=0mm|YOffset=0mm|HoleType=Round|Shape=RoundedRectangle|*
%AMROUNDEDRECTD156*
21,1,1.9000,1.5000,0,0,270.0*
21,1,0.9000,2.5000,0,0,270.0*
1,1,1.0000,-0.7500,-0.4500*
1,1,1.0000,-0.7500,0.4500*
1,1,1.0000,0.7500,0.4500*
1,1,1.0000,0.7500,-0.4500*
%
%ADD156ROUNDEDRECTD156*%
%ADD157R,2.5000X1.9000*%
%ADD158R,1.3000X2.1000*%
%ADD159R,1.7000X1.3000*%
G04:AMPARAMS|DCode=160|XSize=1.7mm|YSize=1.3mm|CornerRadius=0.35mm|HoleSize=0mm|Usage=FLASHONLY|Rotation=0.000|XOffset=0mm|YOffset=0mm|HoleType=Round|Shape=RoundedRectangle|*
%AMROUNDEDRECTD160*
21,1,1.7000,0.6000,0,0,0.0*
21,1,1.0000,1.3000,0,0,0.0*
1,1,0.7000,0.5000,-0.3000*
1,1,0.7000,-0.5000,-0.3000*
1,1,0.7000,-0.5000,0.3000*
1,1,0.7000,0.5000,0.3000*
%
%ADD160ROUNDEDRECTD160*%
%ADD161R,3.1000X2.5000*%
%ADD162R,1.4272X1.7272*%
%ADD163R,3.5272X1.7272*%
%ADD164R,4.1000X3.3000*%
%ADD165R,0.7000X1.3000*%
G04:AMPARAMS|DCode=166|XSize=0.7mm|YSize=1.3mm|CornerRadius=0.2mm|HoleSize=0mm|Usage=FLASHONLY|Rotation=0.000|XOffset=0mm|YOffset=0mm|HoleType=Round|Shape=RoundedRectangle|*
%AMROUNDEDRECTD166*
21,1,0.7000,0.9000,0,0,0.0*
21,1,0.3000,1.3000,0,0,0.0*
1,1,0.4000,0.1500,-0.4500*
1,1,0.4000,-0.1500,-0.4500*
1,1,0.4000,-0.1500,0.4500*
1,1,0.4000,0.1500,0.4500*
%
%ADD166ROUNDEDRECTD166*%
%ADD167R,0.7000X0.7000*%
%ADD168R,1.9000X1.2000*%
%ADD169R,0.9000X1.1000*%
G04:AMPARAMS|DCode=170|XSize=0.74mm|YSize=2.26mm|CornerRadius=0.21mm|HoleSize=0mm|Usage=FLASHONLY|Rotation=180.000|XOffset=0mm|YOffset=0mm|HoleType=Round|Shape=RoundedRectangle|*
%AMROUNDEDRECTD170*
21,1,0.7400,1.8400,0,0,180.0*
21,1,0.3200,2.2600,0,0,180.0*
1,1,0.4200,-0.1600,0.9200*
1,1,0.4200,0.1600,0.9200*
1,1,0.4200,0.1600,-0.9200*
1,1,0.4200,-0.1600,-0.9200*
%
%ADD170ROUNDEDRECTD170*%
%ADD171R,0.7400X2.2600*%
%ADD172R,2.1000X1.1000*%
%ADD173R,1.1000X1.6000*%
G04:AMPARAMS|DCode=174|XSize=1.1mm|YSize=1.6mm|CornerRadius=0.3mm|HoleSize=0mm|Usage=FLASHONLY|Rotation=180.000|XOffset=0mm|YOffset=0mm|HoleType=Round|Shape=RoundedRectangle|*
%AMROUNDEDRECTD174*
21,1,1.1000,1.0000,0,0,180.0*
21,1,0.5000,1.6000,0,0,180.0*
1,1,0.6000,-0.2500,0.5000*
1,1,0.6000,0.2500,0.5000*
1,1,0.6000,0.2500,-0.5000*
1,1,0.6000,-0.2500,-0.5000*
%
%ADD174ROUNDEDRECTD174*%
%ADD175R,1.5000X0.8500*%
%ADD176R,1.5000X1.1000*%
%ADD177R,1.5000X1.3000*%
%ADD178R,1.1000X1.3000*%
%ADD179R,2.9000X1.3000*%
%ADD180R,2.1000X1.3000*%
%ADD181R,1.5000X3.1000*%
%ADD182R,3.1000X1.5000*%
G04:AMPARAMS|DCode=183|XSize=1.9mm|YSize=2.5mm|CornerRadius=0.5mm|HoleSize=0mm|Usage=FLASHONLY|Rotation=0.000|XOffset=0mm|YOffset=0mm|HoleType=Round|Shape=RoundedRectangle|*
%AMROUNDEDRECTD183*
21,1,1.9000,1.5000,0,0,0.0*
21,1,0.9000,2.5000,0,0,0.0*
1,1,1.0000,0.4500,-0.7500*
1,1,1.0000,-0.4500,-0.7500*
1,1,1.0000,-0.4500,0.7500*
1,1,1.0000,0.4500,0.7500*
%
%ADD183ROUNDEDRECTD183*%
%ADD184R,1.9000X2.5000*%
G36*
X1677500Y1922500D02*
X1640000D01*
Y1900000D01*
X1627500D01*
Y1867500D01*
X1632500Y1862500D01*
X1692500D01*
Y1900000D01*
X1677500D01*
Y1922500D01*
D02*
G37*
D31*
X1285000Y2269000D02*
D03*
X1305000D02*
D03*
X1250000D02*
D03*
X1270000D02*
D03*
X1784000Y2168000D02*
D03*
X1764000D02*
D03*
X1620730Y2085080D02*
D03*
X1640730D02*
D03*
Y2065080D02*
D03*
X1620730D02*
D03*
X1620730Y2045080D02*
D03*
X1640730D02*
D03*
X1977000Y2476000D02*
D03*
X1997000D02*
D03*
X1897000Y2345000D02*
D03*
X1877000D02*
D03*
X2740096Y2098000D02*
D03*
X2720096D02*
D03*
X2772000Y2072000D02*
D03*
X2752000D02*
D03*
X2740000D02*
D03*
X2720000D02*
D03*
X2772096Y2098000D02*
D03*
X2752096D02*
D03*
X2772000Y2124000D02*
D03*
X2752000D02*
D03*
X2740000D02*
D03*
X2720000D02*
D03*
X2518000Y2112000D02*
D03*
X2538000D02*
D03*
X2551000D02*
D03*
X2571000D02*
D03*
X2551000Y2040000D02*
D03*
X2571000D02*
D03*
X2551000Y1967000D02*
D03*
X2571000D02*
D03*
X2518000Y2040000D02*
D03*
X2538000D02*
D03*
X2538000Y1967000D02*
D03*
X2518000D02*
D03*
X1339000Y1558000D02*
D03*
X1319000D02*
D03*
X2663250Y1532770D02*
D03*
X2643250D02*
D03*
Y1574770D02*
D03*
X2663250D02*
D03*
X2608000Y1519000D02*
D03*
X2628000D02*
D03*
X2608000Y1499000D02*
D03*
X2628000D02*
D03*
X2435000Y1931000D02*
D03*
X2455000D02*
D03*
X2469000D02*
D03*
X2489000D02*
D03*
X2523000D02*
D03*
X2503000D02*
D03*
X2492000Y1859000D02*
D03*
X2472000D02*
D03*
X1644000Y2184000D02*
D03*
X1624000D02*
D03*
X1784000Y2149000D02*
D03*
X1764000D02*
D03*
X1403000Y2098000D02*
D03*
X1383000D02*
D03*
X1798000Y2001000D02*
D03*
X1818000D02*
D03*
X1616000Y1826000D02*
D03*
X1636000D02*
D03*
X1763000Y2001000D02*
D03*
X1783000D02*
D03*
X1557000Y1653000D02*
D03*
X1577000D02*
D03*
X1836420Y1874520D02*
D03*
X1816420D02*
D03*
X2230000Y1688000D02*
D03*
X2210000D02*
D03*
X2209000Y1753000D02*
D03*
X2189000D02*
D03*
X2242000D02*
D03*
X2222000D02*
D03*
X1676000Y1760000D02*
D03*
X1656000D02*
D03*
X1734000Y1759000D02*
D03*
X1714000D02*
D03*
X1952000D02*
D03*
X1932000D02*
D03*
X1894000Y1760000D02*
D03*
X1874000D02*
D03*
X2599000Y1824000D02*
D03*
X2579000D02*
D03*
X1893250Y1861820D02*
D03*
X1873250D02*
D03*
X1893570Y1842770D02*
D03*
X1873570D02*
D03*
X1897129Y2327112D02*
D03*
X1877129D02*
D03*
D32*
X1561000Y2182000D02*
D03*
X2460000Y1810000D02*
D03*
X1615000Y1723000D02*
D03*
X2334000Y1721000D02*
D03*
X2042000Y1768200D02*
D03*
X1824400Y1768750D02*
D03*
X2026000Y2476000D02*
D03*
D33*
X1561000Y2208000D02*
D03*
X2460000Y1836000D02*
D03*
X1615000Y1697000D02*
D03*
X2334000Y1747000D02*
D03*
X2042000Y1742200D02*
D03*
X1824400Y1742750D02*
D03*
X2026000Y2450000D02*
D03*
D34*
X2165000Y2418000D02*
D03*
Y2438000D02*
D03*
X2546000Y2425000D02*
D03*
Y2405000D02*
D03*
X2145000Y2418000D02*
D03*
Y2438000D02*
D03*
X2139950Y2338390D02*
D03*
Y2358390D02*
D03*
X2597150Y2338070D02*
D03*
Y2358070D02*
D03*
X2571750Y2338390D02*
D03*
Y2358390D02*
D03*
X2520950Y2338390D02*
D03*
Y2358390D02*
D03*
X2190750Y2338390D02*
D03*
Y2358390D02*
D03*
X2495550Y2338390D02*
D03*
Y2358390D02*
D03*
X2470150Y2338390D02*
D03*
Y2358390D02*
D03*
X2444750Y2338390D02*
D03*
Y2358390D02*
D03*
X2419350Y2338390D02*
D03*
Y2358390D02*
D03*
X2393950Y2338390D02*
D03*
Y2358390D02*
D03*
X2368550Y2338390D02*
D03*
Y2358390D02*
D03*
X2343150Y2338390D02*
D03*
Y2358390D02*
D03*
X2317750Y2338390D02*
D03*
Y2358390D02*
D03*
X2292350Y2338390D02*
D03*
Y2358390D02*
D03*
X2266950Y2338390D02*
D03*
Y2358390D02*
D03*
X2241550Y2338390D02*
D03*
Y2358390D02*
D03*
X2216150Y2338390D02*
D03*
Y2358390D02*
D03*
X2186000Y2418000D02*
D03*
Y2438000D02*
D03*
X2122170Y2358070D02*
D03*
Y2338070D02*
D03*
X2030000Y2250000D02*
D03*
Y2270000D02*
D03*
X1992630Y1935160D02*
D03*
Y1915160D02*
D03*
X1459000Y1951000D02*
D03*
Y1931000D02*
D03*
Y1971000D02*
D03*
Y1991000D02*
D03*
X1429000Y1980000D02*
D03*
Y1960000D02*
D03*
Y2000000D02*
D03*
Y2020000D02*
D03*
X1489000Y1922000D02*
D03*
Y1902000D02*
D03*
Y1942000D02*
D03*
Y1962000D02*
D03*
X2437000Y1829000D02*
D03*
Y1809000D02*
D03*
X2493000Y1813000D02*
D03*
Y1833000D02*
D03*
X2401000Y1840000D02*
D03*
Y1860000D02*
D03*
X2419000Y1840000D02*
D03*
Y1860000D02*
D03*
X2437000Y1840000D02*
D03*
Y1860000D02*
D03*
X1706000Y1851000D02*
D03*
Y1871000D02*
D03*
X1819000Y2061000D02*
D03*
Y2041000D02*
D03*
Y2095000D02*
D03*
Y2075000D02*
D03*
X1837000Y2078000D02*
D03*
Y2058000D02*
D03*
X1727000Y2033000D02*
D03*
Y2053000D02*
D03*
Y1999000D02*
D03*
Y2019000D02*
D03*
X1746000Y2036000D02*
D03*
Y2016000D02*
D03*
X1593000Y1826000D02*
D03*
Y1806000D02*
D03*
X1501000Y1635000D02*
D03*
Y1615000D02*
D03*
X1518000Y1635000D02*
D03*
Y1615000D02*
D03*
X1517000Y1589000D02*
D03*
Y1569000D02*
D03*
X2597000Y1807000D02*
D03*
Y1787000D02*
D03*
X2094600Y1811320D02*
D03*
Y1791320D02*
D03*
Y1832320D02*
D03*
Y1852320D02*
D03*
X2111600Y1732320D02*
D03*
Y1712320D02*
D03*
X1643000Y1640000D02*
D03*
Y1620000D02*
D03*
X1861000Y1640000D02*
D03*
Y1620000D02*
D03*
X1537000Y1569000D02*
D03*
Y1589000D02*
D03*
Y1615000D02*
D03*
Y1635000D02*
D03*
X1574000Y1792000D02*
D03*
Y1772000D02*
D03*
Y1826000D02*
D03*
Y1806000D02*
D03*
X2679520Y2319540D02*
D03*
Y2299540D02*
D03*
X2679520Y2252540D02*
D03*
Y2232540D02*
D03*
X2700000Y2070000D02*
D03*
Y2090000D02*
D03*
X2680000Y2070000D02*
D03*
Y2090000D02*
D03*
X2660000Y2070000D02*
D03*
Y2090000D02*
D03*
X2679520Y2184940D02*
D03*
Y2164940D02*
D03*
X2395000Y1997000D02*
D03*
Y2017000D02*
D03*
X2395000Y2070000D02*
D03*
Y2090000D02*
D03*
Y2142000D02*
D03*
Y2162000D02*
D03*
D35*
X1979000Y2438000D02*
D03*
X1993750Y2412000D02*
D03*
Y2438000D02*
D03*
X1979000Y2412000D02*
D03*
X1893000Y2439000D02*
D03*
X1878250Y2413000D02*
D03*
Y2439000D02*
D03*
X1893000Y2413000D02*
D03*
X2350750Y1801500D02*
D03*
X2336000Y1775500D02*
D03*
Y1801500D02*
D03*
X2350750Y1775500D02*
D03*
X1875790Y1924650D02*
D03*
X1890540Y1898650D02*
D03*
Y1924650D02*
D03*
X1875790Y1898650D02*
D03*
X2578000Y1716000D02*
D03*
X2592750Y1690000D02*
D03*
Y1716000D02*
D03*
X2578000Y1690000D02*
D03*
Y1761004D02*
D03*
X2592750Y1735004D02*
D03*
Y1761004D02*
D03*
X2578000Y1735004D02*
D03*
X2359000Y2061000D02*
D03*
X2344250Y2087000D02*
D03*
Y2061000D02*
D03*
X2359000Y2087000D02*
D03*
D36*
X1979000Y2429000D02*
D03*
X1993750Y2421000D02*
D03*
Y2429000D02*
D03*
X1979000Y2421000D02*
D03*
X1893000Y2430000D02*
D03*
X1878250Y2422000D02*
D03*
Y2430000D02*
D03*
X1893000Y2422000D02*
D03*
X2350750Y1792500D02*
D03*
X2336000Y1784500D02*
D03*
Y1792500D02*
D03*
X2350750Y1784500D02*
D03*
X1875790Y1915650D02*
D03*
X1890540Y1907650D02*
D03*
Y1915650D02*
D03*
X1875790Y1907650D02*
D03*
X2578000Y1707000D02*
D03*
X2592750Y1699000D02*
D03*
Y1707000D02*
D03*
X2578000Y1699000D02*
D03*
Y1752004D02*
D03*
X2592750Y1744003D02*
D03*
Y1752004D02*
D03*
X2578000Y1744003D02*
D03*
X2359000Y2070000D02*
D03*
X2344250Y2078000D02*
D03*
Y2070000D02*
D03*
X2359000Y2078000D02*
D03*
D40*
X1968000Y1994000D02*
D03*
X1973000D02*
D03*
X1978000D02*
D03*
X1983000D02*
D03*
X1988000D02*
D03*
X1993000D02*
D03*
X1998000D02*
D03*
X2003000D02*
D03*
X2008000D02*
D03*
X2013000D02*
D03*
X2018000D02*
D03*
X2023000D02*
D03*
X2028000D02*
D03*
X2033000D02*
D03*
X2038000D02*
D03*
X2043000D02*
D03*
X2048000D02*
D03*
X2053000D02*
D03*
X2058000D02*
D03*
X2063000D02*
D03*
X2068000D02*
D03*
X2073000D02*
D03*
X2078000D02*
D03*
X2083000D02*
D03*
X2088000D02*
D03*
Y2148000D02*
D03*
X2083000D02*
D03*
X2078000D02*
D03*
X2073000D02*
D03*
X2068000D02*
D03*
X2063000D02*
D03*
X2058000D02*
D03*
X2053000D02*
D03*
X2048000D02*
D03*
X2043000D02*
D03*
X2038000D02*
D03*
X2033000D02*
D03*
X2028000D02*
D03*
X2023000D02*
D03*
X2018000D02*
D03*
X2013000D02*
D03*
X2008000D02*
D03*
X2003000D02*
D03*
X1998000D02*
D03*
X1993000D02*
D03*
X1988000D02*
D03*
X1983000D02*
D03*
X1978000D02*
D03*
X1973000D02*
D03*
X1968000D02*
D03*
D41*
X2105000Y2011000D02*
D03*
Y2016000D02*
D03*
Y2021000D02*
D03*
Y2026000D02*
D03*
Y2031000D02*
D03*
Y2036000D02*
D03*
Y2041000D02*
D03*
Y2046000D02*
D03*
Y2051000D02*
D03*
Y2056000D02*
D03*
Y2061000D02*
D03*
Y2066000D02*
D03*
Y2071000D02*
D03*
Y2076000D02*
D03*
Y2081000D02*
D03*
Y2086000D02*
D03*
Y2091000D02*
D03*
Y2096000D02*
D03*
Y2101000D02*
D03*
Y2106000D02*
D03*
Y2111000D02*
D03*
Y2116000D02*
D03*
Y2121000D02*
D03*
Y2126000D02*
D03*
Y2131000D02*
D03*
X1951000D02*
D03*
Y2126000D02*
D03*
Y2121000D02*
D03*
Y2116000D02*
D03*
Y2111000D02*
D03*
Y2106000D02*
D03*
Y2101000D02*
D03*
Y2096000D02*
D03*
Y2091000D02*
D03*
Y2086000D02*
D03*
Y2081000D02*
D03*
Y2076000D02*
D03*
Y2071000D02*
D03*
Y2066000D02*
D03*
Y2061000D02*
D03*
Y2056000D02*
D03*
Y2051000D02*
D03*
Y2046000D02*
D03*
Y2041000D02*
D03*
Y2036000D02*
D03*
Y2031000D02*
D03*
Y2026000D02*
D03*
Y2021000D02*
D03*
Y2016000D02*
D03*
Y2011000D02*
D03*
D42*
X1242000Y2217000D02*
D03*
X1400000Y1719000D02*
D03*
D43*
X1242000Y2192000D02*
D03*
Y2167000D02*
D03*
X1294000Y2188000D02*
D03*
X1319000Y2243750D02*
D03*
X1344000Y2188000D02*
D03*
X2671000Y2359000D02*
D03*
X2696000Y2414750D02*
D03*
X2721000Y2359000D02*
D03*
X1534730Y2055080D02*
D03*
X1676000Y2329000D02*
D03*
Y2471000D02*
D03*
X1365000Y1719000D02*
D03*
X2730000Y2480000D02*
D03*
X1350000D02*
D03*
Y1510000D02*
D03*
X2730000D02*
D03*
D44*
X2024000Y1859000D02*
D03*
X2235000Y1918000D02*
D03*
X1617000Y1762000D02*
D03*
D45*
X2808000Y1680000D02*
D03*
X2806600Y1921000D02*
D03*
X1247000Y1680000D02*
D03*
X1247600Y2119000D02*
D03*
Y2360000D02*
D03*
Y1920000D02*
D03*
X2807000Y2120000D02*
D03*
X2806000Y2361000D02*
D03*
X1542000Y1800000D02*
D03*
X1516600D02*
D03*
X1415000D02*
D03*
X1491200D02*
D03*
X1465800D02*
D03*
X1364200D02*
D03*
X1389600D02*
D03*
X2561650Y2230400D02*
D03*
X2536250D02*
D03*
X2587050D02*
D03*
X2612450D02*
D03*
X2304000Y1779400D02*
D03*
Y1804800D02*
D03*
Y1754000D02*
D03*
Y1728600D02*
D03*
X2042000Y1675800D02*
D03*
Y1701200D02*
D03*
Y1650400D02*
D03*
Y1625000D02*
D03*
X1824400Y1676350D02*
D03*
Y1701750D02*
D03*
Y1650950D02*
D03*
Y1625550D02*
D03*
D46*
X2833400Y1680000D02*
D03*
X2832000Y1921000D02*
D03*
X1272400Y1680000D02*
D03*
X1273000Y2119000D02*
D03*
Y2360000D02*
D03*
Y1920000D02*
D03*
X2832400Y2120000D02*
D03*
X2831400Y2361000D02*
D03*
D47*
X1321000Y1946200D02*
D03*
Y1971600D02*
D03*
Y1997000D02*
D03*
Y2022400D02*
D03*
Y2047800D02*
D03*
Y2073200D02*
D03*
X2368550Y2382520D02*
D03*
X2622550D02*
D03*
X2597150D02*
D03*
X2571750D02*
D03*
X2546350D02*
D03*
X2520950D02*
D03*
X2495550D02*
D03*
X2470150D02*
D03*
X2444750D02*
D03*
X2419350D02*
D03*
X2393950D02*
D03*
X2266950D02*
D03*
X2241550D02*
D03*
X2216150D02*
D03*
X2190750D02*
D03*
X2165350D02*
D03*
X2292350D02*
D03*
X2317750D02*
D03*
X2343150D02*
D03*
X2721000Y1862000D02*
D03*
Y1824000D02*
D03*
X2835250Y1842750D02*
D03*
Y1804750D02*
D03*
X2257000Y1507000D02*
D03*
X2404000D02*
D03*
X1506000Y1547000D02*
D03*
X1468000D02*
D03*
X1455000Y2396000D02*
D03*
X2721000Y1980000D02*
D03*
Y1942000D02*
D03*
X2835250Y1999250D02*
D03*
Y1961250D02*
D03*
X2080000Y1507000D02*
D03*
X2227000D02*
D03*
X1922000Y1547000D02*
D03*
X1884000D02*
D03*
X1708000D02*
D03*
X1670000D02*
D03*
X2820000Y2480000D02*
D03*
X1260000D02*
D03*
Y1510000D02*
D03*
X2820000D02*
D03*
D48*
X1321000Y2098600D02*
D03*
X2721000Y1900000D02*
D03*
X2835250Y1880750D02*
D03*
X1455000Y2196000D02*
D03*
X2721000Y2018000D02*
D03*
X2835250Y2037250D02*
D03*
D49*
X1673000Y2112000D02*
D03*
X1738000D02*
D03*
X1673000Y2157000D02*
D03*
X1738000D02*
D03*
X2139950Y2382520D02*
D03*
X1544000Y1547000D02*
D03*
X1960000D02*
D03*
X1746000D02*
D03*
D50*
X1635000Y2007000D02*
D03*
D51*
X1458730Y2055080D02*
D03*
D52*
X1923600Y2324000D02*
D03*
Y2349400D02*
D03*
X1949000Y2324000D02*
D03*
Y2349400D02*
D03*
X1923600Y2425600D02*
D03*
X1949000D02*
D03*
X1923600Y2451000D02*
D03*
X1949000D02*
D03*
X1923600Y2476400D02*
D03*
X1949000Y2400200D02*
D03*
X1923600D02*
D03*
X1949000Y2374800D02*
D03*
X1923600D02*
D03*
X1789400Y2212600D02*
D03*
Y2238000D02*
D03*
X1764000Y2212600D02*
D03*
Y2238000D02*
D03*
X1738600Y2212600D02*
D03*
Y2238000D02*
D03*
X1814800D02*
D03*
Y2212600D02*
D03*
X1840200Y2238000D02*
D03*
Y2212600D02*
D03*
D53*
X1949000Y2476400D02*
D03*
D54*
X2363300Y1625400D02*
D03*
X2287100D02*
D03*
X2299800Y1600000D02*
D03*
X2312500Y1625400D02*
D03*
X2350600Y1600000D02*
D03*
X2325200D02*
D03*
X2337900Y1625400D02*
D03*
X2186300D02*
D03*
X2110100D02*
D03*
X2122800Y1600000D02*
D03*
X2135500Y1625400D02*
D03*
X2173600Y1600000D02*
D03*
X2148200D02*
D03*
X2160900Y1625400D02*
D03*
X2515135Y1656541D02*
D03*
X2502435Y1631141D02*
D03*
X2527835D02*
D03*
X2489735Y1656541D02*
D03*
X2477035Y1631141D02*
D03*
X2464335Y1656541D02*
D03*
X2540535D02*
D03*
D55*
X2376000Y1600000D02*
D03*
X2199000D02*
D03*
X2553235Y1631141D02*
D03*
D56*
X2274000Y1536000D02*
D03*
X2388000D02*
D03*
X2097000D02*
D03*
X2211000D02*
D03*
X2451635Y1565101D02*
D03*
X2565934D02*
D03*
D57*
X1691000Y2001000D02*
D03*
Y2049000D02*
D03*
X1783000Y2044000D02*
D03*
Y2092000D02*
D03*
X2454000Y1896000D02*
D03*
X2502000D02*
D03*
D58*
X2621310Y2004000D02*
D03*
X2570510D02*
D03*
X2519710D02*
D03*
X2621310Y2077000D02*
D03*
X2570510D02*
D03*
X2519710D02*
D03*
X2621310Y2149000D02*
D03*
X2570510D02*
D03*
X2519710D02*
D03*
D59*
X2468910Y2004000D02*
D03*
X2468910Y2077000D02*
D03*
Y2149000D02*
D03*
D60*
X2588735Y1598141D02*
D03*
X2428734D02*
D03*
D61*
X2574985Y1518642D02*
D03*
X2442491D02*
D03*
X2467925D02*
D03*
X2549679D02*
D03*
D144*
X2258820Y2315480D02*
D03*
X2250820Y2300730D02*
D03*
X2258820D02*
D03*
X2250820Y2315480D02*
D03*
X2536190Y2314720D02*
D03*
X2544190Y2299970D02*
D03*
X2536190D02*
D03*
X2544190Y2314720D02*
D03*
X2453260Y2315210D02*
D03*
X2461260Y2300460D02*
D03*
X2453260D02*
D03*
X2461260Y2315210D02*
D03*
X2351660D02*
D03*
X2359660Y2300460D02*
D03*
X2351660D02*
D03*
X2359660Y2315210D02*
D03*
X2675000Y2127750D02*
D03*
X2683000Y2113000D02*
D03*
X2675000D02*
D03*
X2683000Y2127750D02*
D03*
X2805000Y2087000D02*
D03*
X2797000Y2072250D02*
D03*
X2805000D02*
D03*
X2797000Y2087000D02*
D03*
X2592000Y1944000D02*
D03*
X2584000Y1929250D02*
D03*
X2592000D02*
D03*
X2584000Y1944000D02*
D03*
D145*
X2267820Y2315480D02*
D03*
X2241820Y2300730D02*
D03*
X2267820D02*
D03*
X2241820Y2315480D02*
D03*
X2527190Y2314720D02*
D03*
X2553190Y2299970D02*
D03*
X2527190D02*
D03*
X2553190Y2314720D02*
D03*
X2444260Y2315210D02*
D03*
X2470260Y2300460D02*
D03*
X2444260D02*
D03*
X2470260Y2315210D02*
D03*
X2342660D02*
D03*
X2368660Y2300460D02*
D03*
X2342660D02*
D03*
X2368660Y2315210D02*
D03*
X2666000Y2127750D02*
D03*
X2692000Y2113000D02*
D03*
X2666000D02*
D03*
X2692000Y2127750D02*
D03*
X2814000Y2087000D02*
D03*
X2788000Y2072250D02*
D03*
X2814000D02*
D03*
X2788000Y2087000D02*
D03*
X2601000Y1944000D02*
D03*
X2575000Y1929250D02*
D03*
X2601000D02*
D03*
X2575000Y1944000D02*
D03*
D146*
X1341320Y2098600D02*
D03*
Y2073200D02*
D03*
Y2047800D02*
D03*
Y2022400D02*
D03*
Y1997000D02*
D03*
Y1971600D02*
D03*
Y1946200D02*
D03*
D147*
X2132200Y1712520D02*
D03*
X2144900D02*
D03*
X2170300D02*
D03*
X2157600D02*
D03*
Y1763320D02*
D03*
X2170300D02*
D03*
X2144900D02*
D03*
D148*
X2132200D02*
D03*
D149*
X1785620Y1893570D02*
D03*
D150*
Y1906270D02*
D03*
Y1931670D02*
D03*
Y1918970D02*
D03*
X1836420D02*
D03*
Y1931670D02*
D03*
Y1906270D02*
D03*
Y1893570D02*
D03*
D151*
X1580000Y1942000D02*
D03*
X1580500Y1999000D02*
D03*
X1626500Y1971000D02*
D03*
X1598730Y2065080D02*
D03*
X1644000Y2162000D02*
D03*
X1591000Y2254000D02*
D03*
X2413000Y1996000D02*
D03*
X2413000Y2069000D02*
D03*
Y2141000D02*
D03*
D152*
X1580000Y1922000D02*
D03*
X1554500Y1932000D02*
D03*
X1580500Y1979000D02*
D03*
X1555000Y1989000D02*
D03*
X1626500Y1951000D02*
D03*
X1601000Y1961000D02*
D03*
X1598730Y2045080D02*
D03*
X1573230Y2055080D02*
D03*
X1618500Y2152000D02*
D03*
X1644000Y2142000D02*
D03*
X1565500Y2244000D02*
D03*
X1591000Y2234000D02*
D03*
X2438500Y2006000D02*
D03*
X2413000Y2016000D02*
D03*
X2438500Y2079000D02*
D03*
X2413000Y2089000D02*
D03*
X2438500Y2151000D02*
D03*
X2413000Y2161000D02*
D03*
D153*
X1513000Y2203500D02*
D03*
X2638000Y1787500D02*
D03*
X1704000Y1603780D02*
D03*
X1922000D02*
D03*
D154*
X1533000Y2203500D02*
D03*
X1523000Y2178000D02*
D03*
X2628000Y1813000D02*
D03*
X2618000Y1787500D02*
D03*
X1714000Y1578280D02*
D03*
X1724000Y1603780D02*
D03*
X1932000Y1578280D02*
D03*
X1942000Y1603780D02*
D03*
D155*
X1339000Y1582000D02*
D03*
X1305750D02*
D03*
X2630000Y1553770D02*
D03*
X2663250D02*
D03*
Y1595770D02*
D03*
X2630000D02*
D03*
D156*
X1536000Y1743000D02*
D03*
X1296000Y2306000D02*
D03*
X1624000Y2229000D02*
D03*
X1624000Y2267000D02*
D03*
X1536000Y1703000D02*
D03*
X1476731Y2138079D02*
D03*
X2630720Y2296160D02*
D03*
X2312600Y1682050D02*
D03*
X2050600Y1578450D02*
D03*
X2188000Y1795000D02*
D03*
X1833000Y1579000D02*
D03*
D157*
X1490999Y1743001D02*
D03*
X1250999Y2306001D02*
D03*
X1669001Y2228999D02*
D03*
X1669001Y2266999D02*
D03*
X1581001Y1702999D02*
D03*
X1521732Y2138078D02*
D03*
X2585719Y2296161D02*
D03*
X2267599Y1682051D02*
D03*
X2005599Y1578451D02*
D03*
X2233001Y1794999D02*
D03*
X1787999Y1579001D02*
D03*
D158*
X1394000Y1589000D02*
D03*
X1368600D02*
D03*
X1394000Y1664000D02*
D03*
X1368600D02*
D03*
D159*
X1685000Y1826000D02*
D03*
X1662000Y1798000D02*
D03*
X2601250Y2261000D02*
D03*
X2497000Y2228000D02*
D03*
X2307000Y1846000D02*
D03*
X2024600Y1545450D02*
D03*
X1807000Y1546000D02*
D03*
D160*
X1659000Y1826000D02*
D03*
X1636000Y1798000D02*
D03*
X2627250Y2261000D02*
D03*
X2471000Y2228000D02*
D03*
X2281000Y1846000D02*
D03*
X2050600Y1545450D02*
D03*
X1833000Y1546000D02*
D03*
D161*
X1576999Y1578999D02*
D03*
X1577000Y1624000D02*
D03*
D162*
X1659000Y1850000D02*
D03*
X1682000D02*
D03*
X1636000D02*
D03*
D163*
X1659000Y1913000D02*
D03*
D164*
X1456000Y1658000D02*
D03*
X1455999Y1582999D02*
D03*
D165*
X2152300Y1791360D02*
D03*
Y1852320D02*
D03*
X2126900D02*
D03*
Y1791360D02*
D03*
X2139600Y1852320D02*
D03*
Y1791360D02*
D03*
X2114200D02*
D03*
D166*
Y1852320D02*
D03*
D167*
X2229500Y1733000D02*
D03*
X2210500D02*
D03*
X2220000D02*
D03*
X2210500Y1703000D02*
D03*
X2229500D02*
D03*
D168*
X2110600Y1654320D02*
D03*
Y1685320D02*
D03*
X2181600Y1655320D02*
D03*
Y1686320D02*
D03*
X1676000Y1605780D02*
D03*
Y1574780D02*
D03*
X1751000Y1605780D02*
D03*
Y1574780D02*
D03*
X1894000Y1605780D02*
D03*
Y1574780D02*
D03*
X1969000Y1605780D02*
D03*
Y1574780D02*
D03*
D169*
X2145600Y1680320D02*
D03*
X2151950Y1658391D02*
D03*
X2139250D02*
D03*
D170*
X1660200Y1732280D02*
D03*
X1878200D02*
D03*
D171*
X1672900D02*
D03*
X1685600D02*
D03*
X1698300D02*
D03*
X1711000D02*
D03*
X1723700D02*
D03*
X1736400D02*
D03*
X1749100D02*
D03*
X1660200Y1636780D02*
D03*
X1672900D02*
D03*
X1685600D02*
D03*
X1698300D02*
D03*
X1711000D02*
D03*
X1723700D02*
D03*
X1736400D02*
D03*
X1749100D02*
D03*
X1890900Y1732280D02*
D03*
X1903600D02*
D03*
X1916300D02*
D03*
X1929000D02*
D03*
X1941700D02*
D03*
X1954400D02*
D03*
X1967100D02*
D03*
X1878200Y1636780D02*
D03*
X1890900D02*
D03*
X1903600D02*
D03*
X1916300D02*
D03*
X1929000D02*
D03*
X1941700D02*
D03*
X1954400D02*
D03*
X1967100D02*
D03*
D172*
X2808000Y2294600D02*
D03*
Y2320000D02*
D03*
X2706400Y2294600D02*
D03*
Y2320000D02*
D03*
X2808000Y2227600D02*
D03*
Y2253000D02*
D03*
X2706400Y2227600D02*
D03*
Y2253000D02*
D03*
X2808000Y2160000D02*
D03*
Y2185400D02*
D03*
X2706400Y2160000D02*
D03*
Y2185400D02*
D03*
D173*
X2844520Y2325540D02*
D03*
Y2258540D02*
D03*
Y2190940D02*
D03*
D174*
X2844520Y2287050D02*
D03*
Y2220050D02*
D03*
Y2152450D02*
D03*
D175*
X2621000Y1667000D02*
D03*
Y1678000D02*
D03*
Y1700000D02*
D03*
Y1689000D02*
D03*
Y1722000D02*
D03*
Y1711000D02*
D03*
Y1744000D02*
D03*
Y1733000D02*
D03*
Y1753750D02*
D03*
D176*
Y1651500D02*
D03*
D177*
X2664750Y1761750D02*
D03*
D178*
X2727750Y1762250D02*
D03*
D179*
X2768750Y1762250D02*
D03*
D180*
X2773250Y1625250D02*
D03*
D181*
X2474750Y2196000D02*
D03*
X2500000D02*
D03*
D182*
X2250000Y1867000D02*
D03*
Y1841750D02*
D03*
X2008600Y1764450D02*
D03*
Y1739200D02*
D03*
X1791000Y1765000D02*
D03*
Y1739750D02*
D03*
D183*
X2064000Y2476000D02*
D03*
D184*
X2063999Y2430999D02*
D03*
M02*
